# Blender v3.0.1 OBJ File: ''
# www.blender.org
mtllib cavshirt.mtl
o US_Master_REF.mo_US_Master_REF.md
v 3.946902 2.219662 -2.138976
v 3.870441 -2.100394 -0.952374
v 3.776133 -0.843740 -1.715320
v 4.025376 -3.566555 -0.399524
v 4.095886 4.459673 -3.003744
v 4.044264 11.351282 -1.615712
v 3.554041 8.794215 -3.009899
v 1.542415 10.575313 -2.411911
v -1.544778 10.575685 -2.409349
v -0.000748 11.419288 -2.011030
v -0.001346 10.348707 -2.576013
v 1.175082 11.589719 -1.891935
v 2.527108 12.648886 -1.121325
v 4.970309 13.645287 -0.103007
v 3.309636 14.330090 -0.050429
v 1.069672 12.572105 -1.762664
v 2.075797 13.420166 -1.103932
v 2.656011 14.684441 -0.430100
v -2.526827 12.649496 -1.117132
v -1.070475 12.572367 -1.760887
v -1.176338 11.590003 -1.889983
v -0.000656 12.276034 -2.025006
v -0.000927 13.531408 -2.534230
v 0.931312 13.863436 -2.049046
v 1.829644 14.379183 -1.462303
v -4.968096 13.646488 -0.094762
v -4.045117 11.352259 -1.609001
v -3.307171 14.330891 -0.044939
v -2.075301 13.420668 -1.100488
v -0.932278 13.863661 -2.047500
v -2.654090 14.685085 -0.425693
v -1.829510 14.379622 -1.459267
v -0.002057 8.500684 -3.594488
v 1.403958 6.690091 -4.094759
v -0.002721 6.674130 -4.183352
v -0.002870 5.345434 -4.169965
v 1.488131 5.340046 -4.056768
v -1.409248 6.690431 -4.092424
v -1.282048 8.540160 -3.514309
v 1.614864 4.307695 -3.881128
v 4.099515 5.403959 -3.414347
v 3.860763 6.899370 -3.502958
v 1.278075 8.539850 -3.516433
v 1.876300 1.914996 -3.151151
v 1.885214 -1.006289 -2.515396
v -0.002957 1.850724 -3.126634
v -0.002907 -1.083979 -2.639009
v -1.620373 4.308095 -3.878454
v -1.882236 1.915461 -3.148048
v -1.890801 -1.005829 -2.512265
v 0.019990 -2.317225 -2.138707
v 2.046639 -2.294470 -1.912138
v 2.122787 -3.756290 -1.115954
v 0.020179 -3.777610 -1.196777
v -2.006275 -2.293980 -1.908776
v -3.780351 -0.842825 -1.709060
v -3.951082 2.220639 -2.132470
v -3.828435 -2.099465 -0.945984
v -3.983639 -3.565586 -0.392879
v -2.082285 -3.755781 -1.112465
v -4.099901 4.460688 -2.996987
v -4.103982 5.404970 -3.407568
v -3.557110 8.795074 -3.004000
v -3.865016 6.900309 -3.496554
v -1.493683 5.340410 -4.054298
v -0.002869 4.364803 -4.025784
vt 0.743700 0.745100
vt 0.703100 0.779100
vt 0.694800 0.731400
vt 0.703100 0.836700
vt 0.684100 0.807900
vt 0.704600 0.807900
vt 0.681600 0.783200
vt 0.664600 0.752000
vt 0.654300 0.701900
vt 0.635700 0.724400
vt 0.664600 0.783400
vt 0.650400 0.757400
vt 0.628400 0.736600
vt 0.664600 0.863900
vt 0.664600 0.832300
vt 0.681600 0.832500
vt 0.669900 0.807900
vt 0.647900 0.807900
vt 0.642600 0.785400
vt 0.633800 0.762600
vt 0.654300 0.913800
vt 0.694800 0.884200
vt 0.635700 0.891400
vt 0.650400 0.858300
vt 0.642600 0.830400
vt 0.628400 0.879200
vt 0.633800 0.853300
vt 0.741700 0.807900
vt 0.792000 0.785500
vt 0.790500 0.807900
vt 0.815400 0.807900
vt 0.816400 0.784300
vt 0.792000 0.830200
vt 0.743700 0.829800
vt 0.875000 0.738800
vt 0.835900 0.781500
vt 0.835900 0.737300
vt 0.818400 0.740200
vt 0.791500 0.743400
vt 0.743700 0.785900
vt 0.877400 0.777300
vt 0.927200 0.740700
vt 0.928700 0.776000
vt 0.879900 0.807900
vt 0.932100 0.807900
vt 0.835900 0.834400
vt 0.877400 0.838400
vt 0.928700 0.839700
vt 0.973100 0.807900
vt 0.968800 0.774200
vt 0.968300 0.739300
vt 0.991700 0.775500
vt 0.991700 0.740200
vt 0.991700 0.807900
vt 0.968800 0.841600
vt 0.927200 0.875100
vt 0.875000 0.877100
vt 0.968300 0.876600
vt 0.991700 0.840200
vt 0.991700 0.875500
vt 0.835900 0.878600
vt 0.818400 0.875500
vt 0.743700 0.870600
vt 0.791500 0.872400
vt 0.816400 0.831500
vt 0.834500 0.807900
vn 0.1594 0.3764 -0.9126
vn 0.0861 0.4684 -0.8793
vn 0.1395 0.4794 -0.8665
vn -0.0874 0.4684 -0.8792
vn -0.0008 0.2568 -0.9665
vn -0.0007 0.4725 -0.8813
vn 0.1484 0.3330 -0.9312
vn 0.2679 0.3899 -0.8810
vn 0.1599 0.4860 -0.8592
vn 0.3499 0.3610 -0.8644
vn 0.4004 0.0047 -0.9163
vn 0.5646 0.1081 -0.8182
vn 0.6377 0.1134 -0.7619
vn -0.2692 0.3899 -0.8806
vn -0.4019 0.0048 -0.9157
vn -0.1498 0.3330 -0.9309
vn -0.0008 -0.1309 -0.9914
vn -0.0008 -0.2618 -0.9651
vn 0.5562 -0.1295 -0.8209
vn 0.6927 -0.0896 -0.7156
vn -0.1612 0.4860 -0.8589
vn -0.1408 0.4794 -0.8662
vn -0.3513 0.3611 -0.8638
vn -0.5660 0.1082 -0.8173
vn -0.5576 -0.1293 -0.8200
vn -0.6389 0.1136 -0.7608
vn -0.6939 -0.0894 -0.7145
vn -0.0007 0.3920 -0.9200
vn 0.1409 0.1423 -0.9798
vn -0.0008 0.1482 -0.9890
vn -0.0008 -0.0808 -0.9967
vn 0.1567 -0.0824 -0.9842
vn -0.1424 0.1423 -0.9795
vn -0.1036 0.3822 -0.9183
vn 0.4219 -0.2226 -0.8789
vn 0.1935 -0.2445 -0.9501
vn 0.3300 -0.3680 -0.8693
vn 0.2809 -0.1840 -0.9419
vn 0.2164 0.1323 -0.9673
vn 0.1022 0.3822 -0.9184
vn 0.2340 -0.2260 -0.9456
vn 0.4290 -0.2960 -0.8534
vn 0.2279 -0.2853 -0.9309
vn -0.0008 -0.2510 -0.9680
vn -0.0013 -0.2730 -0.9620
vn -0.1951 -0.2444 -0.9498
vn -0.2357 -0.2259 -0.9452
vn -0.2308 -0.2885 -0.9292
vn -0.0003 -0.4666 -0.8845
vn 0.2668 -0.4348 -0.8601
vn 0.4278 -0.3855 -0.8175
vn 0.2457 -0.4244 -0.8715
vn 0.3623 -0.2951 -0.8841
vn -0.0008 -0.5139 -0.8579
vn -0.2664 -0.4390 -0.8581
vn -0.4300 -0.3016 -0.8510
vn -0.4234 -0.2224 -0.8782
vn -0.4289 -0.3916 -0.8141
vn -0.2473 -0.4242 -0.8711
vn -0.3639 -0.2948 -0.8836
vn -0.3315 -0.3679 -0.8688
vn -0.2825 -0.1839 -0.9415
vn -0.1608 0.3765 -0.9124
vn -0.2179 0.1324 -0.9669
vn -0.1584 -0.0824 -0.9839
vn -0.0008 -0.2413 -0.9704
usemtl M_US_Head_01_Pants_INST
s 1
f 7/1/1 8/2/2 6/3/3
f 9/4/4 10/5/5 11/6/6
f 10/5/5 8/2/2 11/6/6
f 8/2/2 10/5/5 12/7/7
f 13/8/8 8/2/2 12/7/7
f 8/2/2 13/8/8 6/3/3
f 13/8/8 14/9/9 6/3/3
f 14/9/9 13/8/8 15/10/10
f 16/11/11 13/8/8 12/7/7
f 13/8/8 16/11/11 17/12/12
f 17/12/12 15/10/10 13/8/8
f 15/10/10 17/12/12 18/13/13
f 19/14/14 20/15/15 21/16/16
f 22/17/17 21/16/16 20/15/15
f 20/15/15 23/18/18 22/17/17
f 23/18/18 16/11/11 22/17/17
f 16/11/11 23/18/18 24/19/19
f 24/19/19 17/12/12 16/11/11
f 17/12/12 24/19/19 25/20/20
f 25/20/20 18/13/13 17/12/12
f 26/21/21 19/14/14 27/22/22
f 19/14/14 9/4/4 27/22/22
f 9/4/4 19/14/14 21/16/16
f 10/5/5 9/4/4 21/16/16
f 21/16/16 22/17/17 10/5/5
f 22/17/17 12/7/7 10/5/5
f 12/7/7 22/17/17 16/11/11
f 19/14/14 26/21/21 28/23/23
f 28/23/23 29/24/24 19/14/14
f 20/15/15 19/14/14 29/24/24
f 29/24/24 30/25/25 20/15/15
f 23/18/18 20/15/15 30/25/25
f 29/24/24 28/23/23 31/26/26
f 31/26/26 32/27/27 29/24/24
f 30/25/25 29/24/24 32/27/27
f 33/28/28 34/29/29 35/30/30
f 36/31/31 34/29/29 37/32/32
f 34/29/29 36/31/31 35/30/30
f 36/31/31 38/33/33 35/30/30
f 38/33/33 33/28/28 35/30/30
f 33/28/28 38/33/33 39/34/34
f 1/35/35 40/36/36 5/37/37
f 40/36/36 41/38/38 5/37/37
f 41/38/38 40/36/36 37/32/32
f 37/32/32 42/39/39 41/38/38
f 42/39/39 37/32/32 34/29/29
f 43/40/40 42/39/39 34/29/29
f 34/29/29 33/28/28 43/40/40
f 11/6/6 43/40/40 33/28/28
f 39/34/34 11/6/6 33/28/28
f 11/6/6 39/34/34 9/4/4
f 42/39/39 43/40/40 7/1/1
f 8/2/2 7/1/1 43/40/40
f 43/40/40 11/6/6 8/2/2
f 44/41/41 3/42/42 45/43/43
f 45/43/43 46/44/44 44/41/41
f 46/44/44 45/43/43 47/45/45
f 48/46/46 46/44/44 49/47/47
f 46/44/44 50/48/48 49/47/47
f 50/48/48 46/44/44 47/45/45
f 51/49/49 50/48/48 47/45/45
f 45/43/43 51/49/49 47/45/45
f 51/49/49 45/43/43 52/50/50
f 3/42/42 52/50/50 45/43/43
f 52/50/50 3/42/42 2/51/51
f 53/52/52 2/51/51 4/53/53
f 2/51/51 53/52/52 52/50/50
f 54/54/54 52/50/50 53/52/52
f 52/50/50 54/54/54 51/49/49
f 54/54/54 55/55/55 51/49/49
f 50/48/48 51/49/49 55/55/55
f 55/55/55 56/56/56 50/48/48
f 56/56/56 49/47/47 50/48/48
f 49/47/47 56/56/56 57/57/57
f 57/57/57 48/46/46 49/47/47
f 56/56/56 55/55/55 58/58/58
f 58/58/58 60/59/59 59/60/60
f 60/59/59 58/58/58 55/55/55
f 55/55/55 54/54/54 60/59/59
f 48/46/46 57/57/57 61/61/61
f 62/62/62 48/46/46 61/61/61
f 63/63/63 9/4/4 39/34/34
f 9/4/4 63/63/63 27/22/22
f 39/34/34 64/64/64 63/63/63
f 64/64/64 39/34/34 38/33/33
f 65/65/65 64/64/64 38/33/33
f 38/33/33 36/31/31 65/65/65
f 66/66/66 65/65/65 36/31/31
f 37/32/32 66/66/66 36/31/31
f 66/66/66 37/32/32 40/36/36
f 64/64/64 65/65/65 62/62/62
f 48/46/46 62/62/62 65/65/65
f 65/65/65 66/66/66 48/46/46
f 46/44/44 48/46/46 66/66/66
f 40/36/36 46/44/44 66/66/66
f 46/44/44 40/36/36 44/41/41
f 40/36/36 1/35/35 44/41/41
f 3/42/42 44/41/41 1/35/35
