# Blender v3.0.1 OBJ File: ''
# www.blender.org
mtllib cavwatch.mtl
o US_Tunic_Officer_Mesh.mo_US_Tunic_Officer_Mesh.md.002
v -0.297184 2.767639 -3.337282
v -1.050968 2.535049 -3.312275
v -0.795072 2.912994 -3.018371
v 0.320712 1.153206 -3.898031
v 1.307318 1.347794 -2.966214
v 0.767041 0.538368 -3.464393
v 0.877987 1.953522 -3.409354
v -0.161636 1.686363 -4.133262
v 0.358166 2.470558 -3.611038
v -0.820665 1.995956 -3.882107
v -1.304729 2.080872 -3.572901
v -1.246305 2.567055 -3.196716
v -0.868162 3.098625 -2.923049
v -0.732986 3.016106 -2.927227
v -1.505243 2.056328 -3.597591
v -1.368604 1.976761 -3.605011
v -1.471580 2.528770 -2.923342
v -1.057394 3.059669 -2.360777
v -0.864156 2.942825 -2.374457
v -0.915600 2.797188 -1.658194
v -1.112480 2.907249 -1.647054
v -1.364876 2.423103 -1.113323
v -1.247076 1.931320 -0.736868
v -1.391008 2.009102 -0.730690
v -1.167217 2.322968 -1.111105
v -1.249512 2.806923 -1.731899
v -1.240474 2.883720 -2.400404
v -1.566032 2.544159 -2.857441
v -1.875019 2.011589 -2.922778
v -1.618875 2.477257 -2.701829
v -1.860496 2.060776 -2.752921
v -1.452644 2.732605 -2.325549
v -1.353445 2.870743 -2.376357
v -1.876123 1.927414 -1.591843
v -1.634580 2.343811 -1.540665
v -1.459164 2.677376 -1.844639
v -1.361780 2.800079 -1.761297
v -1.493311 2.343315 -1.309452
v -1.829185 1.764496 -1.380398
v -1.895065 1.841064 -1.437917
v -2.060226 1.409470 -1.903350
v -1.586103 2.373596 -1.372581
v -2.042356 1.672043 -1.968019
v -2.107622 1.514481 -1.919052
v -2.051178 1.486252 -2.571861
v -1.798200 1.844406 -3.247257
v -1.610214 1.718307 -3.254540
v -2.017889 1.443108 -2.861262
v -1.807371 1.949898 -2.994393
v -2.099373 1.585083 -2.534103
v -2.035909 1.727211 -2.448944
v -1.148880 2.150032 -1.478986
v 1.220934 1.278923 -2.610112
v -0.961256 2.560234 -2.392484
v 0.016720 0.512726 -0.281851
v -1.129250 1.517143 -0.589978
v -0.443773 0.810272 -0.273522
v 0.302914 0.394470 -0.423949
v 1.028149 0.410614 -1.210888
v -1.334455 1.809677 -0.779363
v 1.399342 0.873787 -2.131737
v 1.513655 1.263763 -2.783532
v 1.307318 1.347794 -2.966214
v 0.877987 1.953522 -3.409354
v -0.795072 2.912994 -3.018371
v -0.297184 2.767639 -3.337282
v 0.358166 2.470558 -3.611038
v -1.656479 0.686775 -1.037643
v -0.550856 -0.252174 -0.816100
v -0.976721 0.040512 -0.749530
v -0.264128 -0.374939 -0.951684
v 0.461872 -0.354431 -1.742133
v -1.834368 0.968727 -1.298024
v -1.678059 1.289330 -2.030782
v 0.770665 -0.046913 -2.767465
v 0.640940 0.464951 -3.216287
v -1.487129 1.687805 -2.851544
v 0.320712 1.153206 -3.898031
v -1.304729 2.080872 -3.572901
v -0.820665 1.995956 -3.882107
v -0.161636 1.686363 -4.133262
v 0.767041 0.538368 -3.464393
v 0.850581 0.252686 -3.424459
v -0.732986 3.016106 -2.927227
v -0.961256 2.560234 -2.392484
v -0.795072 2.912994 -3.018371
v -0.864156 2.942825 -2.374457
v -0.915600 2.797188 -1.658194
v -1.148880 2.150032 -1.478986
v -1.167217 2.322968 -1.111105
v -1.247076 1.931320 -0.736868
v -1.334455 1.809677 -0.779363
v -1.879455 0.880669 -1.406709
v -1.678059 1.289330 -2.030782
v -1.834368 0.968727 -1.298024
v -1.946617 1.042847 -1.911602
v -1.937624 1.123993 -2.471035
v -1.843954 1.241577 -2.637635
v -1.487129 1.687805 -2.851544
v -1.824772 1.319817 -2.862904
v -1.610214 1.718307 -3.254540
v -1.368604 1.976761 -3.605011
v -1.304729 2.080872 -3.572901
v -2.121359 1.149666 -1.907246
v -1.879455 0.880669 -1.406709
v -2.023372 0.962936 -1.398489
v -1.946617 1.042847 -1.911602
v -2.111414 1.237900 -2.460356
v -1.937624 1.123993 -2.471035
v -2.168655 1.138321 -2.617333
v -2.202795 1.233833 -2.735456
v -2.009698 1.044540 -2.628445
v -1.908550 1.055511 -2.748471
v -1.968824 1.169090 -2.869009
v -1.843954 1.241577 -2.637635
v -2.064262 1.366776 -2.630255
v -1.824772 1.319817 -2.862904
v -2.100555 1.246292 -2.858972
v -1.701416 1.529373 -1.125456
v -1.834368 0.968727 -1.298024
v -1.600262 1.362007 -1.028403
v -1.656479 0.686775 -1.037643
v -1.334455 1.809677 -0.779363
v -1.129250 1.517143 -0.589978
v -0.443773 0.810272 -0.273522
v -0.976721 0.040512 -0.749530
v -0.550856 -0.252174 -0.816100
v 0.016720 0.512726 -0.281851
v 0.302914 0.394470 -0.423949
v -0.264128 -0.374939 -0.951684
v 1.028149 0.410614 -1.210888
v 0.461872 -0.354431 -1.742133
v 0.770665 -0.046913 -2.767465
v 1.399342 0.873787 -2.131737
v 0.850581 0.252686 -3.424459
v 1.513655 1.263763 -2.783532
vt 0.792500 0.939800
vt 0.780800 0.926400
vt 0.793500 0.926100
vt 0.766600 0.975100
vt 0.792000 0.991800
vt 0.766600 0.993100
vt 0.792000 0.973700
vt 0.767100 0.957700
vt 0.792000 0.956600
vt 0.767600 0.940300
vt 0.767100 0.926800
vt 0.780800 0.921300
vt 0.797400 0.922600
vt 0.796900 0.926200
vt 0.764200 0.923000
vt 0.764200 0.926800
vt 0.780800 0.913100
vt 0.800800 0.909300
vt 0.800800 0.924200
vt 0.805700 0.911100
vt 0.810500 0.892900
vt 0.805700 0.892900
vt 0.801300 0.875700
vt 0.801800 0.861300
vt 0.798300 0.862900
vt 0.805700 0.874100
vt 0.801800 0.892900
vt 0.795400 0.907600
vt 0.780800 0.911100
vt 0.767600 0.905600
vt 0.780800 0.907300
vt 0.770500 0.902800
vt 0.791000 0.903200
vt 0.793900 0.906000
vt 0.781200 0.877900
vt 0.791500 0.882300
vt 0.795400 0.892800
vt 0.799300 0.892900
vt 0.796400 0.878000
vt 0.781700 0.871900
vt 0.781700 0.874100
vt 0.766600 0.877400
vt 0.794400 0.879600
vt 0.771000 0.882000
vt 0.768100 0.879200
vt 0.760300 0.892200
vt 0.761200 0.911500
vt 0.760700 0.924700
vt 0.756800 0.913500
vt 0.755900 0.898300
vt 0.766100 0.907200
vt 0.762700 0.892300
vt 0.766600 0.892300
vt 0.779300 0.708300
vt 0.749500 0.665300
vt 0.790000 0.689900
vt 0.733400 0.716600
vt 0.763200 0.722700
vt 0.743200 0.720500
vt 0.729000 0.711200
vt 0.726100 0.690400
vt 0.771000 0.722700
vt 0.738300 0.670900
vt 0.746600 0.659700
vt 0.751500 0.658400
vt 0.766600 0.653300
vt 0.798300 0.676800
vt 0.792500 0.665800
vt 0.781700 0.654800
vt 0.754900 0.753100
vt 0.727100 0.745400
vt 0.737300 0.746100
vt 0.720700 0.747800
vt 0.708000 0.764300
vt 0.760700 0.758300
vt 0.760700 0.775300
vt 0.707500 0.787600
vt 0.714800 0.798500
vt 0.761200 0.794900
vt 0.723600 0.815700
vt 0.761200 0.812500
vt 0.752000 0.819500
vt 0.736800 0.823100
vt 0.713400 0.803600
vt 0.708500 0.800800
vt 0.807600 0.679700
vt 0.795900 0.692100
vt 0.805200 0.677500
vt 0.805200 0.692900
vt 0.800300 0.709500
vt 0.783700 0.712600
vt 0.787600 0.721400
vt 0.777800 0.729700
vt 0.774400 0.728800
vt 0.737800 0.837400
vt 0.733400 0.855100
vt 0.734400 0.836100
vt 0.740700 0.849500
vt 0.744100 0.862100
vt 0.742200 0.866800
vt 0.732400 0.876900
vt 0.743200 0.872200
vt 0.738300 0.885100
vt 0.734400 0.895900
vt 0.731900 0.896500
vt 0.761200 0.874300
vt 0.761700 0.859900
vt 0.765100 0.861800
vt 0.757300 0.871900
vt 0.755900 0.886600
vt 0.751500 0.884100
vt 0.752400 0.889600
vt 0.753400 0.892300
vt 0.749000 0.887900
vt 0.745600 0.891700
vt 0.749000 0.896000
vt 0.745600 0.886800
vt 0.747100 0.881700
vt 0.757300 0.892100
vt 0.751000 0.900600
vt 0.752000 0.894900
vt 0.744600 0.897100
vt 0.745600 0.902300
vt 0.781700 0.863500
vt 0.768600 0.858200
vt 0.781200 0.858500
vt 0.769000 0.848900
vt 0.765100 0.857900
vt 0.794900 0.859500
vt 0.794400 0.850600
vt 0.793500 0.828400
vt 0.769000 0.827600
vt 0.768100 0.816300
vt 0.793500 0.816700
vt 0.798300 0.859100
vt 0.793500 0.809100
vt 0.768100 0.808600
vt 0.793900 0.785600
vt 0.768600 0.784800
vt 0.767100 0.758500
vt 0.796900 0.760000
vt 0.766100 0.743400
vt 0.797900 0.744400
vt 0.769500 0.738300
vt 0.795400 0.739000
vn -0.1485 0.6430 -0.7513
vn -0.2823 0.6549 -0.7010
vn -0.0500 0.5827 -0.8112
vn 0.6230 0.0498 -0.7806
vn 0.6766 -0.0044 -0.7363
vn 0.6577 0.0354 -0.7525
vn 0.6160 0.0701 -0.7846
vn 0.2737 0.3841 -0.8818
vn 0.2433 0.4290 -0.8699
vn -0.1702 0.6149 -0.7700
vn -0.1221 0.5567 -0.8217
vn -0.4638 0.6662 -0.5840
vn 0.0047 0.9306 -0.3661
vn 0.4753 0.7965 -0.3739
vn -0.4886 0.1504 -0.8594
vn -0.1587 -0.1712 -0.9724
vn -0.5702 0.6629 -0.4853
vn -0.1509 0.9844 0.0901
vn 0.5161 0.8279 0.2197
vn 0.4458 0.7549 0.4810
vn -0.0774 0.8973 0.4347
vn -0.3333 0.7033 0.6280
vn 0.1384 0.1949 0.9710
vn -0.3220 0.3145 0.8930
vn 0.3119 0.6314 0.7099
vn -0.4890 0.8219 0.2920
vn -0.4904 0.8596 -0.1437
vn -0.6038 0.6553 -0.4539
vn -0.8178 0.2863 -0.4992
vn -0.8504 0.5260 -0.0153
vn -0.8767 0.4805 -0.0208
vn -0.8322 0.5538 0.0258
vn -0.4565 0.8815 -0.1208
vn -0.8784 0.4660 0.1057
vn -0.8521 0.5113 0.1114
vn -0.8330 0.5478 0.0783
vn -0.4623 0.8325 0.3053
vn -0.6661 0.5262 0.5286
vn -0.8101 0.1246 0.5729
vn -0.8317 0.1683 0.5291
vn -0.9783 -0.0101 0.2068
vn -0.6174 0.5371 0.5747
vn -0.8966 0.4382 0.0648
vn -0.9789 -0.0578 0.1959
vn -0.9772 0.0257 -0.2109
vn -0.8023 -0.0095 -0.5969
vn -0.3948 -0.5529 -0.7338
vn -0.7704 0.1300 -0.6241
vn -0.8378 0.3240 -0.4394
vn -0.9731 -0.0093 -0.2301
vn -0.8958 0.4442 0.0125
vn 0.4973 0.7282 0.4715
vn 0.4410 0.7898 0.4263
vn 0.4971 0.7312 0.4672
vn 0.5155 0.7272 0.4533
vn 0.5026 0.6955 0.5134
vn 0.4580 0.6933 0.5564
vn 0.5093 0.7195 0.4722
vn 0.4935 0.6991 0.5175
vn 0.5079 0.7049 0.4952
vn 0.4666 0.7280 0.5023
vn 0.2639 0.8918 0.3675
vn 0.5228 0.8043 0.2824
vn 0.5176 0.7349 0.4381
vn 0.5139 0.6866 0.5142
vn 0.5177 0.7043 0.4857
vn 0.5203 0.7089 0.4763
vn -0.5142 -0.7318 -0.4473
vn -0.5282 -0.7259 -0.4404
vn -0.5682 -0.7493 -0.3402
vn -0.5129 -0.7116 -0.4802
vn -0.5216 -0.7421 -0.4209
vn -0.5108 -0.7391 -0.4391
vn -0.5104 -0.7316 -0.4519
vn -0.5833 -0.6696 -0.4597
vn -0.6379 -0.5982 -0.4851
vn -0.4995 -0.7174 -0.4856
vn -0.5011 -0.7062 -0.5001
vn -0.4984 -0.6889 -0.5263
vn -0.4914 -0.6547 -0.5743
vn -0.5171 -0.6908 -0.5054
vn -0.6561 -0.5648 -0.5006
vn -0.8172 -0.4152 -0.3997
vn 0.9042 -0.4266 0.0223
vn 0.9556 -0.2856 0.0720
vn 0.8722 -0.4872 -0.0430
vn 0.9616 -0.2494 0.1146
vn 0.9503 -0.3032 0.0704
vn 0.9540 -0.2773 0.1137
vn 0.9754 -0.1766 0.1316
vn 0.8837 -0.4676 -0.0209
vn 0.8204 -0.5687 -0.0590
vn 0.8450 -0.5296 -0.0741
vn 0.6727 -0.7231 -0.1571
vn 0.8932 -0.4497 -0.0062
vn 0.5962 -0.7659 -0.2406
vn 0.6705 -0.7321 -0.1204
vn 0.7193 -0.6786 -0.1487
vn 0.7040 -0.6774 -0.2132
vn 0.7253 -0.6594 -0.1976
vn 0.5970 -0.7654 -0.2403
vn 0.8080 -0.5813 -0.0958
vn 0.8590 -0.5085 -0.0599
vn -0.9395 -0.3425 0.0059
vn -0.4659 -0.8375 0.2856
vn -0.8010 -0.4607 0.3824
vn -0.5200 -0.8366 -0.1725
vn -0.9571 -0.2203 0.1884
vn -0.1442 -0.9471 0.2868
vn -0.7944 -0.5923 0.1344
vn -0.9671 -0.0436 -0.2508
vn -0.1930 -0.9776 0.0844
vn 0.3935 -0.8635 -0.3156
vn -0.0306 -0.5114 -0.8588
vn 0.9246 -0.3715 0.0848
vn -0.9135 0.4068 -0.0013
vn 0.1769 -0.4049 -0.8971
vn -0.5432 -0.2129 -0.8122
vn -0.7602 0.0503 0.6477
vn -0.6019 -0.1818 0.7776
vn -0.7104 0.0103 0.7037
vn -0.6420 -0.0498 0.7651
vn -0.5149 -0.2002 0.8335
vn -0.6114 -0.0510 0.7897
vn -0.3809 -0.2900 0.8779
vn -0.3432 -0.3105 0.8864
vn -0.0391 -0.5345 0.8443
vn -0.0657 -0.5382 0.8403
vn 0.3333 -0.6904 0.6421
vn 0.3280 -0.6876 0.6478
vn 0.6899 -0.6758 0.2595
vn 0.6812 -0.6845 0.2596
vn 0.8348 -0.5486 -0.0462
vn 0.8431 -0.5354 -0.0503
vn 0.8523 -0.2899 -0.4354
vn 0.8519 -0.2906 -0.4358
usemtl M_US_Tunic_Officer_INST
s 1
f 1/1/1 2/2/2 3/3/3
f 4/4/4 5/5/5 6/6/6
f 5/5/5 4/4/4 7/7/7
f 8/8/8 7/7/7 4/4/4
f 7/7/7 8/8/8 9/9/9
f 10/10/10 9/9/9 8/8/8
f 9/9/9 10/10/10 1/1/1
f 10/10/10 2/2/2 1/1/1
f 2/2/2 10/10/10 11/11/11
f 11/11/11 12/12/12 2/2/2
f 12/12/12 3/3/3 2/2/2
f 3/3/3 12/12/12 13/13/13
f 14/14/14 3/3/3 13/13/13
f 15/15/15 11/11/11 16/16/16
f 12/12/12 11/11/11 15/15/15
f 12/12/12 15/15/15 17/17/17
f 12/12/12 17/17/17 13/13/13
f 13/13/13 17/17/17 18/18/18
f 18/18/18 14/19/14 13/13/13
f 14/19/14 18/18/18 19/20/19
f 18/18/18 20/21/20 19/20/19
f 20/21/20 18/18/18 21/22/21
f 22/23/22 20/21/20 21/22/21
f 23/24/23 22/23/22 24/25/24
f 22/23/22 23/24/23 25/26/25
f 20/21/20 22/23/22 25/26/25
f 26/27/26 22/23/22 21/22/21
f 18/18/18 26/27/26 21/22/21
f 26/27/26 18/18/18 27/28/27
f 27/28/27 18/18/18 17/17/17
f 28/29/28 27/28/27 17/17/17
f 17/17/17 29/30/29 28/29/28
f 29/30/29 30/31/30 28/29/28
f 30/31/30 29/30/29 31/32/31
f 32/33/32 28/29/28 30/31/30
f 28/29/28 32/33/32 33/34/33
f 27/28/27 28/29/28 33/34/33
f 33/34/33 26/27/26 27/28/27
f 31/32/31 34/35/34 30/31/30
f 35/36/35 30/31/30 34/35/34
f 30/31/30 35/36/35 32/33/32
f 36/37/36 32/33/32 35/36/35
f 36/37/36 33/34/33 32/33/32
f 33/34/33 36/37/36 37/38/37
f 26/27/26 33/34/33 37/38/37
f 37/38/37 38/39/38 26/27/26
f 22/23/22 26/27/26 38/39/38
f 22/23/22 38/39/38 39/40/39
f 40/41/40 41/42/41 39/40/39
f 39/40/39 42/43/42 40/41/40
f 42/43/42 39/40/39 38/39/38
f 38/39/38 37/38/37 42/43/42
f 35/36/35 37/38/37 36/37/36
f 37/38/37 35/36/35 42/43/42
f 34/35/34 42/43/42 35/36/35
f 42/43/42 34/35/34 40/41/40
f 43/44/43 40/41/40 34/35/34
f 40/41/40 43/44/43 44/45/44
f 41/42/41 40/41/40 44/45/44
f 44/45/44 45/46/45 41/42/41
f 46/47/46 16/48/16 47/49/47
f 47/49/47 48/50/48 46/47/46
f 48/50/48 49/51/49 46/47/46
f 49/51/49 48/50/48 45/46/45
f 50/52/50 49/51/49 45/46/45
f 45/46/45 44/45/44 50/52/50
f 44/45/44 51/53/51 50/52/50
f 51/53/51 44/45/44 43/44/43
f 43/44/43 31/32/31 51/53/51
f 34/35/34 31/32/31 43/44/43
f 31/32/31 50/52/50 51/53/51
f 50/52/50 31/32/31 29/30/29
f 49/51/49 50/52/50 29/30/29
f 29/30/29 17/17/17 49/51/49
f 46/47/46 49/51/49 17/17/17
f 46/47/46 17/17/17 15/15/15
f 16/48/16 46/47/46 15/15/15
f 52/54/52 53/55/53 54/56/54
f 55/57/55 56/58/56 57/59/57
f 56/58/56 55/57/55 58/60/58
f 59/61/59 56/58/56 58/60/58
f 56/58/56 59/61/59 60/62/60
f 59/61/59 52/54/52 60/62/60
f 52/54/52 59/61/59 61/63/61
f 53/55/53 52/54/52 61/63/61
f 62/64/62 53/55/53 61/63/61
f 53/55/53 62/64/62 63/65/63
f 64/66/64 53/55/53 63/65/63
f 64/66/64 54/56/54 53/55/53
f 54/56/54 64/66/64 65/67/65
f 64/66/64 66/68/66 65/67/65
f 66/68/66 64/66/64 67/69/67
f 68/70/68 69/71/69 70/72/70
f 69/71/69 68/70/68 71/73/71
f 68/70/68 72/74/72 71/73/71
f 72/74/72 68/70/68 73/75/73
f 74/76/74 72/74/72 73/75/73
f 72/74/72 74/76/74 75/77/75
f 74/76/74 76/78/76 75/77/75
f 76/78/76 74/76/74 77/79/77
f 77/79/77 78/80/78 76/78/76
f 78/80/78 77/79/77 79/81/79
f 80/82/80 78/80/78 79/81/79
f 78/80/78 80/82/80 81/83/81
f 76/78/76 78/80/78 82/84/82
f 83/85/83 76/78/76 82/84/82
f 76/78/76 83/85/83 75/77/75
f 84/86/84 85/87/85 86/88/86
f 87/89/87 85/87/85 84/86/84
f 88/90/88 85/87/85 87/89/87
f 88/90/88 89/91/89 85/87/85
f 90/92/90 89/91/89 88/90/88
f 91/93/91 89/91/89 90/92/90
f 89/91/89 91/93/91 92/94/92
f 93/95/93 94/96/94 95/97/95
f 96/98/96 94/96/94 93/95/93
f 97/99/97 94/96/94 96/98/96
f 94/96/94 97/99/97 98/100/98
f 98/100/98 99/101/99 94/96/94
f 100/102/100 99/101/99 98/100/98
f 101/103/101 99/101/99 100/102/100
f 102/104/102 99/101/99 101/103/101
f 99/101/99 102/104/102 103/105/103
f 104/106/104 105/107/105 106/108/106
f 105/107/105 104/106/104 107/109/107
f 108/110/108 107/109/107 104/106/104
f 107/109/107 108/110/108 109/111/109
f 110/112/110 109/111/109 108/110/108
f 111/113/111 110/112/110 108/110/108
f 111/113/111 112/114/112 110/112/110
f 112/114/112 111/113/111 113/115/113
f 111/113/111 114/116/114 113/115/113
f 109/111/109 110/112/110 112/114/112
f 113/117/113 109/111/109 112/114/112
f 115/118/115 109/111/109 113/117/113
f 111/113/111 108/110/108 116/119/116
f 48/50/48 47/49/47 117/120/117
f 114/116/114 48/50/48 117/120/117
f 48/50/48 114/116/114 118/121/118
f 114/116/114 111/113/111 118/121/118
f 111/113/111 48/50/48 118/121/118
f 116/119/116 48/50/48 111/113/111
f 45/46/45 48/50/48 116/119/116
f 45/46/45 116/119/116 108/110/108
f 108/110/108 41/42/41 45/46/45
f 41/42/41 108/110/108 104/106/104
f 117/120/117 113/122/113 114/116/114
f 117/120/117 115/123/115 113/122/113
f 41/42/41 104/106/104 39/40/39
f 39/40/39 104/106/104 106/108/106
f 119/124/119 39/40/39 106/108/106
f 120/125/120 119/124/119 106/108/106
f 119/124/119 120/125/120 121/126/121
f 122/127/122 121/126/121 120/125/120
f 105/128/105 120/125/120 106/108/106
f 39/40/39 24/25/24 22/23/22
f 39/40/39 119/124/119 24/25/24
f 119/124/119 123/129/123 24/25/24
f 123/129/123 119/124/119 121/126/121
f 124/130/124 123/129/123 121/126/121
f 124/130/124 121/126/121 122/127/122
f 122/127/122 125/131/125 124/130/124
f 125/131/125 122/127/122 126/132/126
f 127/133/127 125/131/125 126/132/126
f 125/131/125 127/133/127 128/134/128
f 24/25/24 123/129/123 23/135/23
f 127/133/127 129/136/129 128/134/128
f 129/136/129 127/133/127 130/137/130
f 130/137/130 131/138/131 129/136/129
f 131/138/131 130/137/130 132/139/132
f 133/140/133 131/138/131 132/139/132
f 131/138/131 133/140/133 134/141/134
f 135/142/135 134/141/134 133/140/133
f 134/141/134 135/142/135 136/143/136
f 6/144/6 136/143/136 135/142/135
f 136/143/136 6/144/6 5/145/5
