# Blender v3.0.1 OBJ File: ''
# www.blender.org
mtllib roboforearm.mtl
o 01-Default.005
v -0.231320 2.496580 -0.722674
v 0.035520 -0.362410 -0.709207
v -0.288270 2.493980 -0.630309
v -0.079270 -0.366460 -0.723818
v 0.057780 -0.356990 -0.596772
v -0.125030 2.508480 -0.707437
v -0.098310 2.503980 -0.596602
v -0.054880 -0.370150 -0.540874
v -0.131710 -0.367050 -0.629782
v -0.210750 2.501480 -0.536792
v 0.174770 2.485280 -0.419778
v 0.134940 2.484680 -0.527055
v 0.134830 1.424380 -0.532843
v 0.112130 1.393180 -0.501790
v 0.131140 1.392580 -0.448469
v 0.168160 1.423380 -0.432940
v 0.088090 1.423480 -0.366048
v 0.087780 2.482680 -0.352423
v -0.003670 2.482080 -0.412034
v 0.013000 2.484080 -0.508451
v 0.020590 1.423780 -0.532729
v -0.007190 1.425780 -0.418791
v 0.030670 1.392180 -0.430352
v 0.108420 -0.369070 -0.512727
v 0.092060 1.389380 -0.406836
v 0.115170 -0.371410 -0.457002
v 0.060190 -0.365890 -0.424520
v 0.011440 -0.370120 -0.471453
v 0.040630 1.392680 -0.500122
v 0.045960 -0.369330 -0.529656
v 0.037570 -0.052360 -0.511421
v 0.171710 -0.085680 -0.494914
v 0.174020 -0.086480 -0.635066
v -0.093300 -0.099050 -0.751231
v -0.187480 -0.354900 -0.486244
v -0.088130 -0.095380 -0.384292
v -0.198740 -0.104620 -0.493827
v -0.085940 -0.350540 -0.384120
v 0.077780 -0.343120 -0.383741
v -0.195770 -0.103280 -0.648535
v -0.189590 -0.356010 -0.645144
v -0.093590 -0.347160 -0.749223
v 0.061370 -0.088740 -0.751897
v 0.060090 -0.345390 -0.760462
v 0.184760 -0.338610 -0.642115
v 0.184590 -0.338940 -0.494871
v 0.074680 -0.088550 -0.390285
v -0.081140 -0.057440 -0.625458
v 0.249880 -0.506470 -0.710420
v 0.154810 -0.304600 -0.217940
v -0.291230 -0.335500 -0.225298
v 0.114510 -0.309810 -0.177684
v 0.122470 -0.511730 -0.177110
v -0.283250 -0.537520 -0.224867
v 0.202470 -0.306670 -0.755927
v -0.359050 -0.335930 -0.289274
v -0.059070 -0.523730 -0.797757
v -0.126580 -0.323420 -0.779534
v -0.067110 -0.321870 -0.798368
v -0.118660 -0.525360 -0.779089
v -0.351030 -0.537880 -0.289027
v 0.162860 -0.506550 -0.217472
v 0.210460 -0.508550 -0.755446
v 0.241820 -0.304640 -0.710940
vt 0.886718 0.738758
vt 0.886348 0.862554
vt 0.881689 0.862812
vt 0.881721 0.738655
vt 0.891034 0.862588
vt 0.891367 0.738867
vt 0.876769 0.738836
vt 0.876769 0.862555
vt 0.901785 0.862593
vt 0.896286 0.862743
vt 0.896432 0.738566
vt 0.901885 0.738872
vt 0.857332 0.783932
vt 0.853728 0.738119
vt 0.858716 0.737762
vt 0.861132 0.783673
vt 0.852957 0.784470
vt 0.848366 0.738570
vt 0.857479 0.785808
vt 0.860174 0.785631
vt 0.854182 0.786113
vt 0.865047 0.783681
vt 0.863523 0.737616
vt 0.862858 0.785621
vt 0.868272 0.737553
vt 0.869488 0.783732
vt 0.865816 0.785410
vt 0.844132 0.739004
vt 0.848151 0.784941
vt 0.851070 0.786435
vt 0.865931 0.862148
vt 0.863492 0.862243
vt 0.868682 0.861715
vt 0.871632 0.861745
vt 0.860691 0.862496
vt 0.857761 0.862734
vt 0.940320 0.908100
vt 0.932421 0.907961
vt 0.937699 0.903112
vt 0.940093 0.915130
vt 0.948397 0.914867
vt 0.943532 0.919657
vt 0.944005 0.903428
vt 0.937072 0.919566
vt 0.932242 0.914733
vt 0.948350 0.907781
vt 0.921330 0.914380
vt 0.921330 0.908171
vt 0.932242 0.953822
vt 0.932242 0.960873
vt 0.921330 0.961312
vt 0.921330 0.954239
vt 0.932242 0.921470
vt 0.921330 0.921189
vt 0.932242 0.927744
vt 0.921330 0.927305
vt 0.932242 0.934508
vt 0.921330 0.933887
vt 0.932242 0.941537
vt 0.921330 0.941292
vt 0.932242 0.947638
vt 0.921330 0.947603
vt 0.817791 0.875886
vt 0.817735 0.884598
vt 0.796184 0.884665
vt 0.796111 0.875886
vt 0.832088 0.884595
vt 0.848146 0.905769
vt 0.831813 0.912522
vt 0.821364 0.889528
vt 0.748513 0.884612
vt 0.748586 0.875886
vt 0.771991 0.875886
vt 0.771971 0.884627
vt 0.833419 0.847983
vt 0.849370 0.855600
vt 0.832209 0.875886
vt 0.821766 0.870396
vt 0.820306 0.884611
vt 0.820390 0.875886
vt 0.793610 0.875886
vt 0.793748 0.884579
vt 0.776040 0.884579
vt 0.775974 0.875886
vt 0.834779 0.884676
vt 0.850213 0.902313
vt 0.851245 0.859167
vt 0.834907 0.875955
vt 0.829650 0.911330
vt 0.820257 0.891862
vt 0.820778 0.868007
vt 0.831192 0.849065
vn -0.4370 -0.0232 -0.8992
vn -0.4236 -0.0222 -0.9056
vn 0.6765 0.0376 -0.7355
vn 0.6765 0.0377 -0.7355
vn 0.6804 0.0385 -0.7318
vn -0.9948 -0.0541 0.0859
vn -0.4236 -0.0221 -0.9056
vn -0.9934 -0.0543 0.1011
vn 0.9800 0.0541 0.1918
vn 0.7718 0.0416 0.6345
vn 0.7718 0.0415 0.6345
vn -0.1924 -0.0118 0.9813
vn -0.1957 -0.0113 0.9806
vn -0.1957 -0.0114 0.9806
vn 0.9800 0.0540 0.1917
vn -0.9948 -0.0541 0.0858
vn 0.5471 0.0089 -0.8370
vn 0.5072 0.0046 -0.8618
vn 0.9618 -0.0072 0.2737
vn 0.9620 -0.0094 0.2729
vn -0.8120 0.0102 -0.5835
vn -0.4661 0.0103 -0.8847
vn 0.5072 0.0047 -0.8618
vn 0.4826 -0.7621 -0.4315
vn 0.2372 -0.7715 -0.5904
vn 0.6322 -0.7747 0.0088
vn 0.6322 -0.7748 0.0088
vn 0.6208 -0.7300 0.2860
vn 0.4826 -0.7621 -0.4316
vn -0.2946 -0.7669 -0.5702
vn -0.5396 -0.7631 -0.3558
vn 0.0680 -0.0117 0.9976
vn 0.0407 -0.0129 0.9991
vn 0.6208 -0.7299 0.2860
vn 0.6322 -0.7747 0.0087
vn 0.2567 -0.7599 0.5972
vn -0.0114 -0.7170 0.6970
vn -0.9163 -0.0041 0.4004
vn -0.9159 0.0005 0.4013
vn 0.0681 -0.0117 0.9976
vn 0.0407 -0.0128 0.9991
vn -0.9164 -0.0041 0.4004
vn -0.4913 -0.7576 0.4298
vn -0.4913 -0.7575 0.4299
vn -0.6636 -0.7272 0.1757
vn -0.8120 0.0101 -0.5836
vn -0.9160 0.0005 0.4013
vn -0.5395 -0.7631 -0.3558
vn -0.6635 -0.7272 0.1757
vn 0.6679 0.0043 -0.7442
vn 0.9789 -0.0099 0.2039
vn 0.9457 -0.0108 0.3249
vn 0.9457 -0.0107 0.3249
vn 0.7562 0.0024 -0.6544
vn 0.0576 -0.0126 0.9983
vn -0.1171 -0.0079 0.9931
vn -0.9919 0.0013 0.1268
vn -0.8582 0.0040 0.5133
vn -0.8582 0.0039 0.5133
vn -0.5245 0.0139 -0.8513
vn -0.6641 0.0105 -0.7476
vn -0.6641 0.0106 -0.7476
vn 0.7562 0.0025 -0.6544
vn 0.0706 0.9921 0.1040
vn -0.1465 0.9694 0.1969
vn 0.0908 0.9615 0.2594
vn -0.1385 0.9869 -0.0830
vn 0.0217 0.9759 -0.2171
vn -0.1887 0.9377 -0.2919
vn 0.2268 0.9677 0.1101
vn -0.3440 0.9290 -0.1366
vn -0.2995 0.9513 0.0734
vn -0.1386 0.9869 -0.0829
vn 0.1523 0.9839 -0.0932
vn -0.1385 0.9869 -0.0829
vn -0.1886 0.9377 -0.2919
vn -0.7061 -0.0078 0.7081
vn -0.7090 -0.0056 0.7052
vn -0.7061 -0.0079 0.7081
vn -0.7032 -0.0101 0.7109
vn 0.0166 0.0133 0.9998
vn 0.0367 0.0010 0.9993
vn -0.0035 0.0257 0.9997
vn -0.1465 0.9694 0.1968
vn -0.2994 0.9513 0.0734
vn -0.1464 0.9694 0.1969
vn -0.9994 -0.0349 -0.0031
vn -0.9988 -0.0455 -0.0196
vn -0.9664 -0.0345 -0.2546
vn -0.8717 -0.0199 -0.4896
vn -0.5184 -0.0142 -0.8551
vn -0.2904 0.0074 -0.9569
vn -0.5183 -0.0142 -0.8551
vn -0.2904 0.0075 -0.9569
vn -0.5184 -0.0142 -0.8550
vn -0.0385 0.0128 -0.9992
vn -0.0386 0.0128 -0.9992
vn -0.0733 0.0336 -0.9967
vn 0.7032 0.0345 -0.7102
vn 0.6862 0.0495 -0.7257
vn 0.7031 0.0346 -0.7102
vn 0.7195 0.0196 -0.6942
vn 0.9267 0.0419 0.3736
vn 0.9261 0.0471 0.3743
vn 0.9989 0.0465 0.0087
vn 0.9989 0.0464 0.0088
vn 0.9990 0.0421 0.0162
vn 0.9266 0.0419 0.3736
vn 0.7326 0.0264 0.6801
vn 0.7262 0.0315 0.6867
vn 0.7262 0.0316 0.6867
vn 0.9261 0.0472 0.3743
vn 0.1522 0.9839 -0.0933
vn 0.9840 0.0397 0.1737
vn 0.8856 0.0364 0.4630
vn 0.8856 0.0364 0.4629
vn 0.9840 0.0396 0.1737
vn -0.0403 0.9992 0.0068
vn -0.0421 0.9991 0.0073
vn -0.0879 0.9961 -0.0069
vn -0.0811 0.9967 -0.0091
vn -0.9026 -0.0363 -0.4289
vn -0.9026 -0.0364 -0.4289
vn 0.0875 -0.9961 0.0067
vn 0.0419 -0.9991 -0.0076
vn 0.0406 -0.9992 -0.0068
vn 0.0811 -0.9967 0.0090
vn -0.0745 -0.0056 -0.9972
vn -0.0751 -0.0060 -0.9972
vn 0.4822 0.0169 -0.8759
vn 0.4820 0.0170 -0.8760
vn -0.0744 -0.0056 -0.9972
vn -0.1164 -0.0018 0.9932
vn -0.4230 -0.0148 0.9060
vn -0.4235 -0.0148 0.9058
vn -0.1167 -0.0025 0.9932
vn -0.0211 0.9997 0.0155
vn -0.0210 0.9997 0.0156
vn -0.0420 0.9991 0.0073
vn -0.0402 0.9992 0.0068
vn 0.0221 -0.9996 -0.0151
vn 0.0227 -0.9996 -0.0148
vn 0.0405 -0.9992 -0.0068
vn 0.0212 -0.9997 -0.0156
vn -0.3002 -0.0144 -0.9538
vn -0.2986 -0.0138 -0.9543
vn -0.2999 -0.0143 -0.9539
vn -0.6868 -0.0258 0.7264
vn -0.6859 -0.0263 0.7273
vn -0.0937 0.9955 -0.0121
vn -0.0428 0.9991 -0.0076
vn -0.0938 0.9955 -0.0121
vn 0.0810 -0.9967 0.0090
vn 0.0440 -0.9990 0.0076
vn 0.0937 -0.9955 0.0120
vn 0.7514 0.0282 -0.6592
vn 0.7518 0.0283 -0.6588
vn 0.7045 0.0298 0.7091
vn 0.7046 0.0297 0.7089
vn 0.8857 0.0364 0.4629
usemtl None
s off
f 4/1/1 1/2/2 6/3/3
f 6/3/4 2/4/5 4/1/1
f 3/5/6 1/2/7 4/1/1
f 4/1/1 9/6/8 3/5/6
f 5/7/9 2/4/5 6/3/4
f 6/3/4 7/8/10 5/7/9
f 7/9/11 10/10/12 8/11/13
f 8/11/14 5/12/15 7/9/11
f 3/5/16 9/6/8 8/11/14
f 8/11/14 10/10/12 3/5/6
f 13/13/17 12/14/18 11/15/19
f 11/15/19 16/16/20 13/13/17
f 13/13/17 21/17/21 20/18/22
f 20/18/22 12/14/23 13/13/17
f 14/19/24 13/13/25 16/16/26
f 16/16/27 15/20/28 14/19/29
f 29/21/30 21/17/31 13/13/25
f 13/13/25 14/19/29 29/21/30
f 17/22/32 16/16/20 11/15/19
f 11/15/19 18/23/33 17/22/32
f 15/20/34 16/16/35 17/22/36
f 17/22/36 25/24/37 15/20/34
f 19/25/38 22/26/39 17/22/32
f 17/22/40 18/23/41 19/25/42
f 25/24/37 17/22/36 22/26/43
f 22/26/44 23/27/45 25/24/37
f 19/28/42 20/18/22 21/17/46
f 21/17/46 22/29/47 19/28/42
f 23/30/45 22/29/44 21/17/31
f 21/17/48 29/21/30 23/30/49
f 14/19/50 15/20/51 26/31/52
f 26/31/53 24/32/54 14/19/50
f 25/24/55 27/33/56 26/31/52
f 26/31/53 15/20/51 25/24/55
f 25/24/55 23/27/57 28/34/58
f 28/34/59 27/33/56 25/24/55
f 30/35/60 28/36/58 23/30/57
f 23/30/57 29/21/61 30/35/60
f 30/35/60 29/21/62 14/19/50
f 14/19/50 24/32/63 30/35/60
f 31/37/64 36/38/65 47/39/66
f 48/40/67 43/41/68 34/42/69
f 47/39/66 32/43/70 31/37/64
f 40/44/71 37/45/72 48/40/73
f 32/43/70 33/46/74 31/37/64
f 48/40/75 34/42/76 40/44/71
f 35/47/77 38/48/78 36/38/77
f 36/38/79 37/45/80 35/47/79
f 47/49/81 36/50/82 38/51/81
f 38/51/81 39/52/83 47/49/81
f 36/38/84 31/37/64 48/40/75
f 48/40/67 37/45/85 36/38/86
f 35/47/87 37/45/88 40/53/89
f 40/53/89 41/54/90 35/47/87
f 34/55/91 42/56/92 41/54/90
f 41/54/90 40/53/89 34/55/93
f 42/56/94 34/55/95 43/57/96
f 43/57/97 44/58/98 42/56/94
f 33/59/99 45/60/100 44/58/99
f 44/58/101 43/57/102 33/59/101
f 32/61/103 46/62/104 45/60/105
f 45/60/106 33/59/107 32/61/103
f 32/61/108 47/49/109 39/52/110
f 39/52/111 46/62/112 32/61/103
f 33/46/74 43/41/68 48/40/67
f 48/40/67 31/37/64 33/46/113
f 49/63/114 64/64/114 50/65/115
f 50/65/115 62/66/116 49/63/117
f 59/67/118 51/68/119 52/69/120
f 52/69/120 55/70/121 59/67/118
f 58/71/122 60/72/122 61/73/122
f 61/73/123 56/74/123 58/71/123
f 53/75/124 54/76/125 57/77/126
f 57/77/126 63/78/127 53/75/124
f 57/77/128 59/67/129 55/79/130
f 55/79/130 63/80/131 57/77/132
f 53/81/133 52/82/133 51/83/134
f 51/83/134 54/84/135 53/81/136
f 59/67/118 58/85/137 56/86/137
f 56/86/138 51/68/139 59/67/140
f 61/87/141 60/88/142 57/77/143
f 57/77/126 54/76/125 61/87/144
f 58/85/145 59/67/129 57/77/128
f 57/77/132 60/88/146 58/85/147
f 61/73/148 54/84/135 51/83/134
f 51/83/134 56/74/149 61/73/149
f 50/89/150 64/90/151 55/70/121
f 55/70/121 52/69/120 50/89/152
f 63/78/153 49/91/154 62/92/155
f 62/92/155 53/75/124 63/78/127
f 49/63/156 63/80/131 55/79/130
f 55/79/130 64/64/157 49/63/157
f 50/65/115 52/82/158 53/81/158
f 53/81/159 62/66/160 50/65/115
