# Blender v3.0.1 OBJ File: ''
# www.blender.org
mtllib robomuscle2.mtl
o 01-Default.009
v -0.079270 -0.366460 -0.723818
v -0.388585 2.496580 -0.722674
v -0.282295 2.508480 -0.707437
v 0.035520 -0.362410 -0.709207
v -0.445535 2.493980 -0.630309
v -0.131710 -0.367050 -0.629782
v 0.057780 -0.356990 -0.596772
v -0.255575 2.503980 -0.596602
v -0.368015 2.501480 -0.536792
v -0.054880 -0.370150 -0.540874
v 0.230126 1.453295 -0.667222
v 0.134940 2.484680 -0.527055
v 0.174770 2.485280 -0.419778
v 0.322582 1.450522 -0.390095
v -0.086772 1.451631 -0.666906
v 0.013000 2.484080 -0.508451
v 0.167157 1.366748 -0.581082
v 0.219890 1.365084 -0.433172
v -0.031182 1.365361 -0.576456
v 0.100471 1.450799 -0.204539
v 0.087780 2.482680 -0.352423
v 0.111483 1.356207 -0.317683
v -0.003670 2.482080 -0.412034
v -0.163833 1.457179 -0.350846
v -0.058811 1.363974 -0.382916
v 0.115170 -0.371410 -0.457002
v 0.108420 -0.369070 -0.512727
v 0.060190 -0.365890 -0.424520
v 0.011440 -0.370120 -0.471453
v 0.045960 -0.369330 -0.529656
v 0.071723 0.867840 -0.473325
v -0.137592 0.796204 -0.261631
v 0.133518 0.807577 -0.271610
v -0.125952 0.859381 -0.663218
v 0.111354 0.807261 -0.873763
v -0.146201 0.790093 -0.872654
v 0.295091 0.812356 -0.445837
v -0.316833 0.783049 -0.701645
v -0.321778 0.780818 -0.444027
v 0.298938 0.811024 -0.679217
v -0.187480 -0.354900 -0.486244
v -0.085940 -0.350540 -0.384120
v 0.077780 -0.343120 -0.383741
v -0.189590 -0.356010 -0.645144
v -0.093590 -0.347160 -0.749223
v 0.060090 -0.345390 -0.760462
v 0.184760 -0.338610 -0.642115
v 0.184590 -0.338940 -0.494871
v 0.249880 -0.506470 -0.710420
v 0.241820 -0.304640 -0.710940
v 0.154810 -0.304600 -0.217940
v 0.162860 -0.506550 -0.217472
v -0.067110 -0.321870 -0.798368
v -0.291230 -0.335500 -0.225298
v 0.114510 -0.309810 -0.177684
v 0.202470 -0.306670 -0.755927
v -0.126580 -0.323420 -0.779534
v -0.118660 -0.525360 -0.779089
v -0.351030 -0.537880 -0.289027
v -0.359050 -0.335930 -0.289274
v 0.122470 -0.511730 -0.177110
v -0.283250 -0.537520 -0.224867
v -0.059070 -0.523730 -0.797757
v 0.210460 -0.508550 -0.755446
vt 0.886718 0.738758
vt 0.886348 0.862554
vt 0.881689 0.862812
vt 0.881721 0.738655
vt 0.891034 0.862588
vt 0.891367 0.738867
vt 0.876769 0.738836
vt 0.876769 0.862555
vt 0.901785 0.862593
vt 0.896286 0.862743
vt 0.896432 0.738566
vt 0.901885 0.738872
vt 0.857332 0.783932
vt 0.853728 0.738119
vt 0.858716 0.737762
vt 0.861132 0.783673
vt 0.852957 0.784470
vt 0.848366 0.738570
vt 0.857479 0.785808
vt 0.860174 0.785631
vt 0.854182 0.786113
vt 0.865047 0.783681
vt 0.863523 0.737616
vt 0.862858 0.785621
vt 0.868272 0.737553
vt 0.869488 0.783732
vt 0.865816 0.785410
vt 0.844132 0.739004
vt 0.848151 0.784941
vt 0.851070 0.786435
vt 0.865931 0.862148
vt 0.863492 0.862243
vt 0.868682 0.861715
vt 0.871632 0.861745
vt 0.860691 0.862496
vt 0.857761 0.862734
vt 0.940320 0.908100
vt 0.932421 0.907961
vt 0.937699 0.903112
vt 0.940093 0.915130
vt 0.948397 0.914867
vt 0.943532 0.919657
vt 0.944005 0.903428
vt 0.937072 0.919566
vt 0.932242 0.914733
vt 0.948350 0.907781
vt 0.921330 0.914380
vt 0.921330 0.908171
vt 0.932242 0.953822
vt 0.932242 0.960873
vt 0.921330 0.961312
vt 0.921330 0.954239
vt 0.932242 0.921470
vt 0.921330 0.921189
vt 0.932242 0.927744
vt 0.921330 0.927305
vt 0.932242 0.934508
vt 0.921330 0.933887
vt 0.932242 0.941537
vt 0.921330 0.941292
vt 0.932242 0.947638
vt 0.921330 0.947603
vt 0.817791 0.875886
vt 0.817735 0.884598
vt 0.796184 0.884665
vt 0.796111 0.875886
vt 0.832088 0.884595
vt 0.848146 0.905769
vt 0.831813 0.912522
vt 0.821364 0.889528
vt 0.748513 0.884612
vt 0.748586 0.875886
vt 0.771991 0.875886
vt 0.771971 0.884627
vt 0.833419 0.847983
vt 0.849370 0.855600
vt 0.832209 0.875886
vt 0.821766 0.870396
vt 0.820306 0.884611
vt 0.820390 0.875886
vt 0.793610 0.875886
vt 0.793748 0.884579
vt 0.776040 0.884579
vt 0.775974 0.875886
vt 0.834779 0.884676
vt 0.850213 0.902313
vt 0.851245 0.859167
vt 0.834907 0.875955
vt 0.829650 0.911330
vt 0.820257 0.891862
vt 0.820778 0.868007
vt 0.831192 0.849065
vn -0.4202 -0.0458 -0.9063
vn -0.4375 -0.0465 -0.8980
vn 0.6636 0.0734 -0.7445
vn 0.6878 0.0765 -0.7219
vn -0.9904 -0.1085 0.0851
vn -0.9888 -0.1087 0.1019
vn 0.9770 0.1109 0.1823
vn 0.7611 0.0986 0.6411
vn -0.2122 -0.0245 0.9769
vn -0.1757 -0.0200 0.9842
vn 0.5390 0.1702 -0.8250
vn 0.4949 0.1622 -0.8537
vn 0.9500 0.1525 0.2724
vn 0.9519 0.1439 0.2706
vn -0.7973 0.2024 -0.5686
vn -0.4523 0.1840 -0.8727
vn 0.4826 -0.7621 -0.4316
vn 0.2372 -0.7715 -0.5904
vn 0.6322 -0.7747 0.0088
vn 0.6208 -0.7299 0.2860
vn -0.2946 -0.7669 -0.5702
vn -0.5395 -0.7631 -0.3558
vn 0.0678 0.1463 0.9869
vn 0.0358 0.1428 0.9891
vn 0.2567 -0.7599 0.5972
vn -0.0114 -0.7170 0.6970
vn -0.9059 0.1470 0.3972
vn -0.9033 0.1650 0.3961
vn -0.4913 -0.7575 0.4299
vn -0.6636 -0.7272 0.1757
vn 0.6668 -0.0550 -0.7432
vn 0.9775 -0.0622 0.2013
vn 0.9450 -0.0665 0.3201
vn 0.7578 -0.0514 -0.6505
vn 0.0571 -0.0707 0.9959
vn -0.1251 -0.0578 0.9905
vn -0.9899 -0.0698 0.1232
vn -0.8560 -0.0445 0.5151
vn -0.5311 -0.0423 -0.8463
vn -0.6634 -0.0497 -0.7466
vn 0.0706 0.9921 0.1040
vn -0.1465 0.9694 0.1969
vn 0.0908 0.9615 0.2594
vn -0.1385 0.9869 -0.0830
vn 0.0217 0.9759 -0.2171
vn -0.1886 0.9377 -0.2919
vn 0.2268 0.9677 0.1101
vn -0.3440 0.9290 -0.1366
vn -0.2995 0.9513 0.0734
vn 0.1523 0.9839 -0.0932
vn -0.7007 -0.1077 0.7053
vn -0.7028 -0.1068 0.7033
vn -0.6965 -0.1077 0.7094
vn -0.6949 -0.1086 0.7109
vn 0.0319 -0.1003 0.9944
vn 0.0410 -0.1043 0.9937
vn 0.0133 -0.1015 0.9947
vn 0.0021 -0.0971 0.9953
vn -0.9941 -0.1082 -0.0024
vn -0.9930 -0.1167 -0.0201
vn -0.9677 -0.0510 -0.2469
vn -0.8880 -0.2075 -0.4103
vn -0.8668 -0.1223 -0.4834
vn -0.9927 -0.1202 -0.0030
vn -0.5052 -0.1241 -0.8540
vn -0.2924 -0.1152 -0.9493
vn -0.0137 -0.1006 -0.9948
vn -0.0715 -0.0944 -0.9930
vn 0.7038 -0.1061 -0.7024
vn 0.6882 -0.0916 -0.7197
vn 0.7041 -0.1055 -0.7022
vn 0.7008 -0.0877 -0.7080
vn 0.7172 -0.0997 -0.6897
vn 0.7016 -0.0857 -0.7073
vn 0.8584 -0.1484 0.4910
vn 0.9216 -0.1044 0.3738
vn 0.9950 -0.0996 0.0085
vn 0.9954 -0.0949 0.0091
vn 0.9950 -0.0983 0.0170
vn 0.9307 -0.0128 0.3655
vn 0.7309 -0.1012 0.6750
vn 0.7228 -0.1005 0.6837
vn 0.9840 0.0397 0.1737
vn 0.8856 0.0364 0.4630
vn 0.8857 0.0363 0.4629
vn -0.0403 0.9992 0.0068
vn -0.0421 0.9991 0.0073
vn -0.0879 0.9961 -0.0069
vn -0.0811 0.9967 -0.0092
vn -0.9026 -0.0364 -0.4289
vn -0.9026 -0.0363 -0.4289
vn 0.0875 -0.9961 0.0067
vn 0.0418 -0.9991 -0.0076
vn 0.0406 -0.9992 -0.0068
vn 0.0810 -0.9967 0.0090
vn -0.0743 -0.0055 -0.9972
vn -0.0748 -0.0060 -0.9972
vn 0.4822 0.0169 -0.8759
vn 0.4820 0.0170 -0.8760
vn -0.1165 -0.0020 0.9932
vn -0.1164 -0.0018 0.9932
vn -0.4231 -0.0150 0.9060
vn -0.4233 -0.0148 0.9059
vn -0.0212 0.9997 0.0155
vn -0.0210 0.9997 0.0156
vn 0.0217 -0.9996 -0.0153
vn 0.0227 -0.9996 -0.0148
vn -0.3000 -0.0143 -0.9538
vn -0.2986 -0.0138 -0.9543
vn -0.6862 -0.0261 0.7269
vn -0.6859 -0.0263 0.7273
vn -0.0938 0.9955 -0.0121
vn -0.0428 0.9991 -0.0076
vn 0.0440 -0.9990 0.0076
vn 0.0937 -0.9955 0.0120
vn 0.7515 0.0282 -0.6591
vn 0.7518 0.0283 -0.6588
vn 0.7045 0.0298 0.7091
vn 0.7046 0.0297 0.7090
usemtl None.001
s 1
f 1/1/1 2/2/2 3/3/3
f 3/3/3 4/4/4 1/1/1
f 5/5/5 2/2/2 1/1/1
f 1/1/1 6/6/6 5/5/5
f 7/7/7 4/4/4 3/3/3
f 3/3/3 8/8/8 7/7/7
f 8/9/8 9/10/9 10/11/10
f 10/11/10 7/12/7 8/9/8
f 5/5/5 6/6/6 10/11/10
f 10/11/10 9/10/9 5/5/5
f 11/13/11 12/14/12 13/15/13
f 13/15/13 14/16/14 11/13/11
f 11/13/11 15/17/15 16/18/16
f 16/18/16 12/14/12 11/13/11
f 17/19/17 11/13/18 14/16/19
f 14/16/19 18/20/20 17/19/17
f 19/21/21 15/17/22 11/13/18
f 11/13/18 17/19/17 19/21/21
f 20/22/23 14/16/14 13/15/13
f 13/15/13 21/23/24 20/22/23
f 18/20/20 14/16/19 20/22/25
f 20/22/25 22/24/26 18/20/20
f 23/25/27 24/26/28 20/22/23
f 20/22/23 21/23/24 23/25/27
f 22/24/26 20/22/25 24/26/29
f 24/26/29 25/27/30 22/24/26
f 23/28/27 16/18/16 15/17/15
f 15/17/15 24/29/28 23/28/27
f 25/30/30 24/29/29 15/17/22
f 15/17/22 19/21/21 25/30/30
f 17/19/31 18/20/32 26/31/33
f 26/31/33 27/32/34 17/19/31
f 22/24/35 28/33/36 26/31/33
f 26/31/33 18/20/32 22/24/35
f 22/24/35 25/27/37 29/34/38
f 29/34/38 28/33/36 22/24/35
f 30/35/39 29/36/38 25/30/37
f 25/30/37 19/21/40 30/35/39
f 30/35/39 19/21/40 17/19/31
f 17/19/31 27/32/34 30/35/39
f 31/37/41 32/38/42 33/39/43
f 34/40/44 35/41/45 36/42/46
f 33/39/43 37/43/47 31/37/41
f 38/44/48 39/45/49 34/40/44
f 37/43/47 40/46/50 31/37/41
f 34/40/44 36/42/46 38/44/48
f 41/47/51 42/48/52 32/38/53
f 32/38/53 39/45/54 41/47/51
f 33/49/55 32/50/56 42/51/57
f 42/51/57 43/52/58 33/49/55
f 32/38/42 31/37/41 34/40/44
f 34/40/44 39/45/49 32/38/42
f 41/47/59 39/45/60 38/53/61
f 38/53/62 44/54/63 41/47/64
f 36/55/65 45/56/66 44/54/63
f 44/54/63 38/53/62 36/55/65
f 45/56/66 36/55/65 35/57/67
f 35/57/67 46/58/68 45/56/66
f 40/59/69 47/60/70 46/58/71
f 46/58/72 35/57/73 40/59/74
f 37/61/75 48/62/76 47/60/77
f 47/60/78 40/59/79 37/61/80
f 37/61/75 33/49/81 43/52/82
f 43/52/82 48/62/76 37/61/75
f 40/46/50 35/41/45 34/40/44
f 34/40/44 31/37/41 40/46/50
f 49/63/83 50/64/83 51/65/84
f 51/65/84 52/66/85 49/63/83
f 53/67/86 54/68/87 55/69/88
f 55/69/88 56/70/89 53/67/86
f 57/71/90 58/72/91 59/73/90
f 59/73/90 60/74/90 57/71/90
f 61/75/92 62/76/93 63/77/94
f 63/77/94 64/78/95 61/75/92
f 63/77/96 53/67/97 56/79/98
f 56/79/98 64/80/99 63/77/96
f 61/81/100 55/82/101 54/83/102
f 54/83/102 62/84/103 61/81/100
f 53/67/86 57/85/104 60/86/105
f 60/86/105 54/68/87 53/67/86
f 59/87/106 58/88/107 63/77/94
f 63/77/94 62/76/93 59/87/106
f 57/85/108 53/67/97 63/77/96
f 63/77/96 58/88/109 57/85/108
f 59/73/110 62/84/103 54/83/102
f 54/83/102 60/74/111 59/73/110
f 51/89/112 50/90/113 56/70/89
f 56/70/89 55/69/88 51/89/112
f 64/78/95 49/91/114 52/92/115
f 52/92/115 61/75/92 64/78/95
f 49/63/116 64/80/99 56/79/98
f 56/79/98 50/64/117 49/63/116
f 51/65/84 55/82/118 61/81/119
f 61/81/119 52/66/85 51/65/84
